<svg width="50" height="50" viewBox="0 0 50 50" fill="none" xmlns="http://www.w3.org/2000/svg">
<path d="M33.332 16.667C36.6472 16.667 39.8267 17.984 42.1709 20.3282C44.5151 22.6724 45.832 25.8518 45.832 29.167V43.7503H37.4987V29.167C37.4987 28.0619 37.0597 27.0021 36.2783 26.2207C35.4969 25.4393 34.4371 25.0003 33.332 25.0003C32.227 25.0003 31.1672 25.4393 30.3858 26.2207C29.6044 27.0021 29.1654 28.0619 29.1654 29.167V43.7503H20.832V29.167C20.832 25.8518 22.149 22.6724 24.4932 20.3282C26.8374 17.984 30.0168 16.667 33.332 16.667V16.667Z" fill="white"/>
<path d="M12.5013 18.75H4.16797V43.75H12.5013V18.75Z" fill="white"/>
<path d="M8.33464 12.5003C10.6358 12.5003 12.5013 10.6348 12.5013 8.33366C12.5013 6.03247 10.6358 4.16699 8.33464 4.16699C6.03345 4.16699 4.16797 6.03247 4.16797 8.33366C4.16797 10.6348 6.03345 12.5003 8.33464 12.5003Z" fill="white"/>
</svg>
