<svg width="34" height="33" viewBox="0 0 34 33" fill="none" xmlns="http://www.w3.org/2000/svg">
<path d="M13.9706 0.292597C5.13207 -1.37912 0 4.21749 0 14.3931V30C0 31.6569 1.34315 33 3 33H10.9706C12.6275 33 13.9706 31.6569 13.9706 30V19.5736C13.9706 17.9168 12.6275 16.5736 10.9706 16.5736H6.62893C6.12998 10.759 7.27044 5.8892 13.1866 6.3253L13.9706 0.292597ZM34 0.292597C25.1614 -1.37912 20.0293 4.21749 20.0293 14.3931V30C20.0293 31.6569 21.3725 33 23.0293 33H31C32.6569 33 34 31.6569 34 30V19.5736C34 17.9168 32.6569 16.5736 31 16.5736H26.6583C26.1593 10.759 27.2998 5.8892 33.2159 6.3253L34 0.292597Z" fill="url(#paint0_angular)"/>
<path d="M13.9706 0.292597C5.13207 -1.37912 0 4.21749 0 14.3931V30C0 31.6569 1.34315 33 3 33H10.9706C12.6275 33 13.9706 31.6569 13.9706 30V19.5736C13.9706 17.9168 12.6275 16.5736 10.9706 16.5736H6.62893C6.12998 10.759 7.27044 5.8892 13.1866 6.3253L13.9706 0.292597ZM34 0.292597C25.1614 -1.37912 20.0293 4.21749 20.0293 14.3931V30C20.0293 31.6569 21.3725 33 23.0293 33H31C32.6569 33 34 31.6569 34 30V19.5736C34 17.9168 32.6569 16.5736 31 16.5736H26.6583C26.1593 10.759 27.2998 5.8892 33.2159 6.3253L34 0.292597Z" fill="#806BFF"/>
<path d="M13.9706 0.292597C5.13207 -1.37912 0 4.21749 0 14.3931V30C0 31.6569 1.34315 33 3 33H10.9706C12.6275 33 13.9706 31.6569 13.9706 30V19.5736C13.9706 17.9168 12.6275 16.5736 10.9706 16.5736H6.62893C6.12998 10.759 7.27044 5.8892 13.1866 6.3253L13.9706 0.292597ZM34 0.292597C25.1614 -1.37912 20.0293 4.21749 20.0293 14.3931V30C20.0293 31.6569 21.3725 33 23.0293 33H31C32.6569 33 34 31.6569 34 30V19.5736C34 17.9168 32.6569 16.5736 31 16.5736H26.6583C26.1593 10.759 27.2998 5.8892 33.2159 6.3253L34 0.292597Z" fill="#F89500"/>
<path d="M13.9706 0.292597C5.13207 -1.37912 0 4.21749 0 14.3931V30C0 31.6569 1.34315 33 3 33H10.9706C12.6275 33 13.9706 31.6569 13.9706 30V19.5736C13.9706 17.9168 12.6275 16.5736 10.9706 16.5736H6.62893C6.12998 10.759 7.27044 5.8892 13.1866 6.3253L13.9706 0.292597ZM34 0.292597C25.1614 -1.37912 20.0293 4.21749 20.0293 14.3931V30C20.0293 31.6569 21.3725 33 23.0293 33H31C32.6569 33 34 31.6569 34 30V19.5736C34 17.9168 32.6569 16.5736 31 16.5736H26.6583C26.1593 10.759 27.2998 5.8892 33.2159 6.3253L34 0.292597Z" fill="#7D4CE6"/>
<defs>
<radialGradient id="paint0_angular" cx="0" cy="0" r="1" gradientUnits="userSpaceOnUse" gradientTransform="translate(2.92431 8.85366) rotate(78.0312) scale(52.081 30.039)">
<stop offset="0.192329" stop-color="#001AFF"/>
<stop offset="0.372506" stop-color="#2400FF"/>
<stop offset="0.547269" stop-color="#0007B5" stop-opacity="0.42"/>
<stop offset="0.671875" stop-color="#2973FF"/>
<stop offset="0.768039" stop-color="#3FA3FF"/>
<stop offset="0.996694" stop-color="#99DAFF"/>
<stop offset="0.998715" stop-color="#001AFF"/>
</radialGradient>
</defs>
</svg>
