<svg width="29" height="28" viewBox="0 0 29 28" fill="none" xmlns="http://www.w3.org/2000/svg">
<g clip-path="url(#clip0)">
<path d="M28.6411 14.1279C28.6411 6.46578 22.4312 0.255859 14.769 0.255859C7.10689 0.255859 0.896973 6.46578 0.896973 14.1279C0.896973 21.0531 5.96895 26.7916 12.6015 27.832V18.1378H9.07933V14.1279H12.6015V11.0717C12.6015 7.59559 14.6715 5.67464 17.8415 5.67464C19.3587 5.67464 20.9464 5.94558 20.9464 5.94558V9.35941H19.1962C17.473 9.35941 16.9366 10.4296 16.9366 11.5269V14.1279H20.7839L20.1689 18.1378H16.9366V27.832C23.5691 26.7916 28.6411 21.0531 28.6411 14.1279Z" fill="white"/>
</g>
<defs>
<clipPath id="clip0">
<rect width="27.7441" height="27.7441" fill="white" transform="translate(0.896973 0.255859)"/>
</clipPath>
</defs>
</svg>
