<svg width="30" height="30" viewBox="0 0 30 30" fill="none" xmlns="http://www.w3.org/2000/svg">
<path fill-rule="evenodd" clip-rule="evenodd" d="M15 0C6.71573 0 0 6.71573 0 15C0 23.2843 6.71573 30 15 30C23.2843 30 30 23.2843 30 15C30 6.71573 23.2843 0 15 0ZM7.20109 12.4236H10.6004V22.6372H7.20109V12.4236ZM10.8243 9.26413C10.8023 8.2627 10.0861 7.49995 8.92326 7.49995C7.76037 7.49995 7.00011 8.2627 7.00011 9.26413C7.00011 10.2448 7.7379 11.0295 8.87913 11.0295H8.90086C10.0861 11.0295 10.8243 10.2448 10.8243 9.26413ZM18.9457 12.1839C21.1826 12.1839 22.8596 13.644 22.8596 16.7811L22.8595 22.6373H19.4603V17.173C19.4603 15.8005 18.9684 14.8639 17.7378 14.8639C16.7987 14.8639 16.2393 15.4953 15.9936 16.1051C15.9038 16.3237 15.8817 16.6282 15.8817 16.9334V22.6375H12.482C12.482 22.6375 12.5268 13.3824 12.482 12.424H15.8817V13.8706C16.3329 13.1752 17.1409 12.1839 18.9457 12.1839Z" fill="#8A8CB9"/>
</svg>
