<svg width="20" height="19" viewBox="0 0 20 19" fill="none" xmlns="http://www.w3.org/2000/svg">
<path d="M15.2206 0.0542603H4.58397C2.48627 0.0542603 0.785156 1.75537 0.785156 3.85307V14.4898C0.785156 16.5875 2.48627 18.2886 4.58397 18.2886H15.2206C17.3191 18.2886 19.0195 16.5875 19.0195 14.4898V3.85307C19.0195 1.75537 17.3191 0.0542603 15.2206 0.0542603ZM6.86326 14.4898H4.58397V6.13236H6.86326V14.4898ZM5.72361 5.16898C4.98968 5.16898 4.39403 4.56877 4.39403 3.82876C4.39403 3.08875 4.98968 2.48854 5.72361 2.48854C6.45754 2.48854 7.0532 3.08875 7.0532 3.82876C7.0532 4.56877 6.4583 5.16898 5.72361 5.16898ZM15.9804 14.4898H13.7011V10.232C13.7011 7.67316 10.6621 7.8669 10.6621 10.232V14.4898H8.38278V6.13236H10.6621V7.47334C11.7227 5.5086 15.9804 5.36348 15.9804 9.35452V14.4898Z" fill="#575983"/>
</svg>
