<svg width="31" height="31" viewBox="0 0 31 31" fill="none" xmlns="http://www.w3.org/2000/svg">
<path fill-rule="evenodd" clip-rule="evenodd" d="M15.1279 0C6.773 0 0 6.773 0 15.1279C0 23.4829 6.773 30.2559 15.1279 30.2559C23.4829 30.2559 30.2559 23.4829 30.2559 15.1279C30.2559 6.773 23.4829 0 15.1279 0ZM7.26234 12.5296H10.6907V22.8303H7.26234V12.5296ZM10.9167 9.3432C10.8944 8.33322 10.1722 7.56396 8.99937 7.56396C7.82656 7.56396 7.05982 8.33322 7.05982 9.3432C7.05982 10.3323 7.8039 11.1237 8.95487 11.1237H8.97678C10.1722 11.1237 10.9167 10.3323 10.9167 9.3432ZM19.1073 12.2877C21.3633 12.2877 23.0546 13.7603 23.0546 16.9242L23.0545 22.8303H19.6263V17.3194C19.6263 15.9352 19.1302 14.9907 17.8892 14.9907C16.942 14.9907 16.3779 15.6274 16.1301 16.2425C16.0394 16.4629 16.0172 16.77 16.0172 17.0778V22.8306H12.5884C12.5884 22.8306 12.6336 13.4965 12.5884 12.5299H16.0172V13.9889C16.4722 13.2875 17.2871 12.2877 19.1073 12.2877Z" fill="white"/>
</svg>
