<svg width="161" height="61" viewBox="0 0 161 61" fill="none" xmlns="http://www.w3.org/2000/svg">
<path d="M19.5578 3.73584C16.8064 4.05052 14.0309 5.07523 11.7313 6.62439C8.24568 8.96428 5.85738 12.4257 4.97791 16.4116C4.80847 17.17 4.79233 17.4605 4.79233 19.4696C4.79233 21.9063 4.90529 22.931 5.39747 24.8352C6.18012 27.8528 7.25325 29.87 9.73837 32.9845C10.4161 33.8236 11.0697 34.7192 11.1988 34.9613C11.5538 35.631 11.8362 37.3092 12.2154 41.0127C12.4252 43.1347 12.5462 43.6511 12.9739 44.2724C13.2885 44.7323 13.6436 45.0228 14.1922 45.281L14.636 45.4908L20.7762 45.5311C26.7308 45.5714 26.9325 45.5795 27.0939 45.7247C27.336 45.9426 27.2875 46.3138 26.9971 46.5316C26.7712 46.701 26.6905 46.701 21.5104 46.7414L16.2497 46.7817L15.7172 47.0319C14.9991 47.3788 14.5715 47.7822 14.2568 48.4197C14.0147 48.9038 13.9905 49.0248 13.9905 49.6864C13.9905 50.3158 14.0228 50.4771 14.2245 50.9128C14.515 51.5422 15.0636 52.0747 15.7898 52.4136L16.3304 52.6718L20.8165 52.7121C25.1252 52.7525 25.3188 52.7606 25.4802 52.9058C25.7222 53.1236 25.6738 53.4948 25.3834 53.7126C25.1574 53.8821 25.0767 53.8821 20.8407 53.9063L16.5321 53.9305V55.1004V56.2704L21.1151 56.2462L25.698 56.222L26.3112 55.9154C27.4408 55.3586 28.0137 54.463 28.0137 53.2769C28.0137 51.8165 27.0051 50.6547 25.4963 50.3723C25.2381 50.3238 23.3501 50.2916 20.9134 50.2916H16.758L16.524 50.0576C16.2416 49.7671 16.2336 49.6219 16.4918 49.3637C16.6774 49.17 16.7419 49.162 17.6375 49.1539C18.162 49.1458 20.5664 49.1216 22.987 49.0893L27.3844 49.0409L27.9492 48.7424C28.6431 48.3793 29.1191 47.9033 29.4176 47.2658C29.6113 46.8543 29.6436 46.6768 29.6436 46.0959C29.6436 45.515 29.6113 45.3375 29.4096 44.9098C29.0061 44.0384 28.1347 43.3849 27.102 43.1912C26.8438 43.1428 24.4393 43.1105 20.8892 43.1105C14.3052 43.1105 14.9023 43.1831 14.757 42.3763C14.7167 42.1342 14.6199 41.3193 14.5553 40.5689C14.4827 39.8105 14.3375 38.5356 14.2326 37.7369C13.7646 34.3077 13.6678 34.0656 11.5699 31.4514C9.67382 29.0873 8.72173 27.4736 8.06817 25.4807C7.41462 23.4797 7.14029 21.6804 7.13222 19.3889C7.13222 17.5815 7.20483 17.0732 7.67281 15.5967C9.24619 10.6506 14.0389 6.85032 19.5498 6.15642C20.6794 6.01118 22.9547 6.09187 23.9956 6.31779C26.1902 6.78577 28.1912 7.70559 29.8856 9.02076C33.573 11.9012 35.5901 16.46 35.1705 20.9623C34.8478 24.4721 33.9038 27.1509 32.1045 29.7086C31.8705 30.0314 31.2411 30.8543 30.7006 31.524C28.8448 33.8155 28.6592 34.1786 28.3123 36.3168C28.1832 37.0994 28.0299 38.0919 27.9734 38.5114L27.8685 39.278L25.3834 39.3022C22.64 39.3264 22.4625 39.2941 22.2205 38.8261C22.0591 38.5114 22.043 31.8952 22.2043 31.8952C23.229 31.8791 24.6975 31.524 25.6093 31.0722C26.8357 30.459 28.0379 29.3939 28.6189 28.4096C29.7807 26.457 30.3052 23.52 30.0067 20.6879C29.9582 20.2684 29.9098 19.9133 29.8937 19.8972C29.8372 19.8407 28.3042 20.2845 27.6829 20.5266C26.4565 21.0107 25.1816 21.7611 23.9633 22.697C22.0026 24.2139 20.7762 25.876 20.1146 27.9012C19.9371 28.4257 19.808 28.7 19.7434 28.6839C19.3803 28.5871 17.7343 27.2961 17.1131 26.6103C15.9189 25.3032 15.3138 23.8992 15.1927 22.1806C15.0233 19.76 15.9996 17.3395 17.7747 15.8145C18.4121 15.2739 19.4207 14.5881 19.4933 14.6607C19.574 14.7414 19.3561 16.9683 19.1947 17.751C18.8075 19.5987 17.6779 22.0031 16.7742 22.9149L16.516 23.1811L17.0646 24.1655C17.3713 24.7061 17.6698 25.166 17.7343 25.1821C17.9441 25.2467 19.1221 23.9154 19.6547 23.0117C21.1635 20.462 21.8574 17.8236 21.8574 14.6526C21.8574 13.7328 21.6637 11.4494 21.5831 11.3445C21.5508 11.3042 19.8886 11.8206 19.4287 12.0061C17.46 12.8049 15.6042 14.2976 14.4908 15.9678C13.337 17.7106 12.8206 19.4696 12.8206 21.6884C12.8206 23.7863 13.2805 25.3274 14.4181 27.054C15.3138 28.4096 17.3551 30.1847 18.9285 30.9834L19.6789 31.3627V34.9693C19.6789 37.3415 19.7111 38.7293 19.7676 39.0117C19.9855 40.0203 20.6713 40.8997 21.6153 41.3596L22.1398 41.6178L25.2785 41.642L28.4171 41.6663L28.8448 41.4565C29.7 41.0369 30.1196 40.3591 30.2971 39.0924C30.7167 36.0747 30.8619 35.3889 31.1927 34.816C31.3138 34.6062 31.9592 33.7671 32.6128 32.9441C35.0657 29.8942 36.1468 27.8851 36.9134 24.9159C37.4055 23.0278 37.5508 21.8498 37.5508 19.752C37.5508 18.1463 37.5266 17.7752 37.3652 16.9925C36.6471 13.4504 35.1302 10.6668 32.5725 8.20584C30.1922 5.9305 27.2875 4.46201 24.0359 3.89721C22.8821 3.70357 20.6068 3.62288 19.5578 3.73584ZM27.6345 23.7217C27.6022 24.0283 27.4893 24.6496 27.3763 25.1176C26.876 27.1509 25.9804 28.2966 24.3022 29.0389C23.4711 29.4101 22.1801 29.6037 22.1801 29.3617C22.1801 29.2971 22.2608 28.9986 22.3496 28.7C22.874 27.0137 24.1166 25.4645 26.0046 24.1574C26.6582 23.7056 27.4973 23.1973 27.6184 23.1892C27.6506 23.1811 27.6587 23.4232 27.6345 23.7217Z" fill="#2A2D50"/>
<path d="M96.088 6.28579V8.83546L95.7894 8.57727C94.6518 7.57677 92.3522 7.41539 90.6417 8.20611C88.5358 9.19048 87.4465 11.1673 87.5595 13.7734C87.5998 14.8546 87.7693 15.5001 88.2292 16.428C88.5761 17.1138 89.4475 18.0417 90.1253 18.4451C91.9649 19.5344 94.5388 19.4699 95.9105 18.2999L96.2494 18.0014V18.5339V19.0664H98.1051H99.9609V11.4013V3.73612H98.0244H96.088V6.28579ZM94.5711 10.9172C95.6765 11.2238 96.3623 12.66 96.088 14.0962C95.8459 15.371 95.0229 16.0891 93.7965 16.0811C92.683 16.073 91.9488 15.492 91.618 14.3867C91.3679 13.5475 91.5292 12.3534 91.9649 11.7321C92.1989 11.4093 92.6266 11.0866 92.9977 10.9494C93.3689 10.8203 94.1596 10.8042 94.5711 10.9172Z" fill="#2A2D50"/>
<path d="M50.9041 11.837V19.0664H52.9213H54.9384V17.1784V15.2903L56.9394 15.25C59.0453 15.2016 59.5214 15.137 60.5461 14.7497C62.1356 14.1526 63.2329 13.0069 63.7009 11.4416C63.8138 11.0866 63.8461 10.6912 63.8461 9.94891C63.8461 9.2066 63.8138 8.81124 63.7009 8.45622C63.2329 6.90705 62.1759 5.77745 60.6429 5.18844C59.36 4.68819 59.2954 4.68012 54.9223 4.64785L50.9041 4.61557V11.837ZM58.1658 7.93983C58.7226 8.06086 59.2874 8.45622 59.5375 8.89999C59.7069 9.2066 59.7392 9.36797 59.7392 9.94891C59.7392 10.7961 59.5375 11.2237 58.9566 11.6191C58.424 11.9741 57.9641 12.0467 56.3504 12.0467H54.9384V9.94891V7.85108H56.3504C57.1169 7.85108 57.9399 7.89142 58.1658 7.93983Z" fill="#2A2D50"/>
<path d="M128.685 10.4734C128.685 14.7578 128.702 15.6131 128.815 16.1375C129.113 17.606 129.904 18.5016 131.3 18.9615C131.873 19.1471 132.09 19.1713 133.083 19.1794C134.253 19.1875 134.761 19.1068 135.487 18.8082C135.697 18.7195 135.867 18.6065 135.867 18.5581C135.867 18.5097 135.657 17.8804 135.407 17.1703L134.947 15.8632L134.616 16.0084C134.414 16.1053 134.099 16.1617 133.793 16.1617C133.349 16.1617 133.26 16.1375 133.01 15.9197C132.615 15.5727 132.558 15.1935 132.558 13.0553V11.2399H133.849H135.14V9.78756V8.34329L133.874 8.31908L132.599 8.29487L132.575 6.85867L132.558 5.43053H130.622H128.685V10.4734Z" fill="#2A2D50"/>
<path d="M72.0275 7.77039C71.0997 7.93176 70.3331 8.28678 69.728 8.84351L69.381 9.16625V8.50463V7.85107H67.5253H65.6695V13.4587V19.0664H67.5979H69.5343L69.5586 16.0165L69.5828 12.9746L69.7925 12.5309C70.2524 11.5546 70.8334 11.2237 72.1889 11.1753L73.0926 11.1431V9.41638V7.6897L72.7537 7.69777C72.5601 7.70584 72.2373 7.73811 72.0275 7.77039Z" fill="#2A2D50"/>
<path d="M78.7492 7.81081C76.4012 8.23844 74.5858 9.81989 74.0049 11.9661C73.8112 12.6762 73.8112 14.2253 74.0129 14.9515C74.5697 16.9929 76.1188 18.4371 78.378 19.0342C78.8137 19.1472 79.2172 19.1794 80.1531 19.1794C81.5732 19.1714 82.2348 19.0261 83.3402 18.4855C84.2762 18.0256 85.3493 16.9687 85.7769 16.0811C86.253 15.1129 86.3659 14.5804 86.3579 13.3781C86.3498 12.4745 86.3256 12.2405 86.14 11.6837C85.5994 10.0377 84.4295 8.81131 82.7754 8.18196C81.5732 7.71399 80.0482 7.57682 78.7492 7.81081ZM81.2666 11.1028C81.7749 11.4013 82.1057 11.837 82.2913 12.4422C82.6705 13.6444 82.3397 15.0241 81.5248 15.6373C81.1294 15.9439 80.7179 16.073 80.1451 16.0811C79.1607 16.0811 78.5152 15.6857 78.0876 14.8224C77.4905 13.6202 77.7729 11.9823 78.7008 11.2803C79.1526 10.9253 79.5157 10.8285 80.2419 10.8607C80.7744 10.8849 80.96 10.9253 81.2666 11.1028Z" fill="#2A2D50"/>
<path d="M120.802 7.80274C119.334 8.08514 118.333 8.59346 117.389 9.54555C116.357 10.5783 115.897 11.603 115.8 13.1361C115.655 15.3953 116.849 17.4689 118.874 18.4613C120.02 19.0261 120.673 19.1714 122.11 19.1794C123.53 19.1794 124.102 19.0665 125.119 18.5743C125.958 18.1709 126.773 17.4044 127.136 16.6701L127.394 16.1699L126.725 15.8148C125.805 15.3146 124.393 14.6126 124.377 14.6449C124.361 14.661 124.24 14.8466 124.094 15.0564C123.586 15.8068 122.892 16.1295 121.924 16.065C120.649 15.9681 119.85 15.0887 119.754 13.6686C119.641 12.0872 120.512 10.9576 121.916 10.8527C122.892 10.7881 123.578 11.1028 124.094 11.8612C124.24 12.071 124.361 12.2566 124.377 12.2727C124.393 12.305 125.805 11.603 126.725 11.1028L127.394 10.7478L127.136 10.2475C126.604 9.18247 125.297 8.23038 123.925 7.89149C123.199 7.71399 121.529 7.66557 120.802 7.80274Z" fill="#2A2D50"/>
<path d="M102.318 11.6192C102.35 15.2581 102.358 15.4195 102.535 16.0005C103.011 17.59 103.964 18.5824 105.448 19.0181C105.69 19.0907 106.239 19.1714 106.658 19.1956C107.966 19.2763 109.16 18.9132 109.991 18.1709L110.37 17.8401V18.4533V19.0665H112.226H114.082V13.4589V7.85119H112.153H110.225L110.193 10.9334C110.16 13.6767 110.136 14.0721 110.007 14.4513C109.821 14.9919 109.345 15.5405 108.902 15.7181C108.127 16.0327 107.046 15.8229 106.658 15.2824C106.247 14.7014 106.231 14.4916 106.19 11.0544L106.158 7.85119H104.222H102.293L102.318 11.6192Z" fill="#2A2D50"/>
<path d="M68.9135 21.0916C68.0421 21.2611 67.3724 21.8743 67.1949 22.657C66.864 24.1416 68.1147 25.3438 69.8091 25.1663C70.9952 25.0453 71.7617 24.3352 71.8585 23.2702C71.915 22.665 71.7697 22.189 71.4228 21.8017C70.8419 21.1562 69.9059 20.8899 68.9135 21.0916Z" fill="#2A2D50"/>
<path d="M50.9041 30.4029V37.6243H54.6399C58.5935 37.6243 59.36 37.5759 60.5057 37.2531C61.4094 36.9949 62.6842 36.3575 63.3055 35.8492C64.3222 35.0181 65.1532 33.7029 65.5244 32.3393C65.7745 31.4115 65.7745 29.3943 65.5244 28.4664C65.2985 27.6192 64.7337 26.4896 64.2173 25.8683C63.1038 24.5048 61.1835 23.5285 59.0937 23.2703C58.658 23.2218 56.8587 23.1815 54.6399 23.1815H50.9041V30.4029ZM58.892 26.6107C60.3201 27.0544 61.1916 27.9581 61.5143 29.3217C61.95 31.1694 61.2319 33.0575 59.7957 33.8159C58.9162 34.2839 58.5451 34.3484 56.6732 34.3484L54.9787 34.3565L54.9545 30.4836C54.9465 28.3535 54.9545 26.5622 54.9787 26.4977C55.0433 26.3283 58.2788 26.417 58.892 26.6107Z" fill="#2A2D50"/>
<path d="M77.4173 26.3282C75.505 26.6348 74.2141 27.4013 73.6412 28.5713C73.3911 29.0796 73.3749 29.1522 73.3749 29.9994C73.3749 30.7901 73.3991 30.9354 73.5847 31.3307C74.1334 32.4926 75.2307 33.0332 77.7723 33.3882C79.386 33.6141 79.8701 33.8078 79.8701 34.2354C79.8701 34.776 79.1843 35.01 77.7481 34.9374C76.6185 34.8809 75.7632 34.6873 74.8757 34.2677C74.5449 34.1144 74.2544 34.0176 74.2221 34.0498C74.1737 34.1063 73.2781 36.1396 73.1248 36.5188C73.0118 36.8174 74.8596 37.4548 76.4571 37.6646C77.619 37.8179 78.4824 37.8179 79.4909 37.6646C81.3628 37.3822 82.6215 36.6399 83.2025 35.4538C83.4445 34.9616 83.4607 34.8728 83.4607 34.074C83.4607 33.3237 83.4365 33.1784 83.2509 32.7831C82.6861 31.6212 81.7179 31.1209 79.2327 30.7175C77.6997 30.4755 77.4496 30.4109 77.1752 30.1931C76.909 29.9833 76.9009 29.6928 77.1591 29.4346C77.732 28.8617 79.967 28.9424 81.4355 29.596C81.6936 29.7089 81.9357 29.7735 81.9761 29.7412C82.0487 29.6686 83.0976 27.2884 83.0976 27.2077C83.0976 27.0947 81.8227 26.659 80.9917 26.4896C80.0396 26.2959 78.1757 26.2152 77.4173 26.3282Z" fill="#2A2D50"/>
<path d="M89.4153 26.3605C87.9468 26.6429 86.9463 27.1512 86.0023 28.1033C84.9695 29.1361 84.5096 30.1608 84.4128 31.6938C84.2675 33.953 85.4617 36.0266 87.4869 37.0191C88.6326 37.5839 89.2862 37.7291 90.7224 37.7372C92.1425 37.7372 92.7153 37.6242 93.732 37.132C94.5711 36.7286 95.386 35.9621 95.7491 35.2279L96.0073 34.7276L95.3376 34.3726C94.4178 33.8723 93.0058 33.1704 92.9897 33.2026C92.9735 33.2188 92.8525 33.4044 92.7073 33.6141C92.199 34.3645 91.5051 34.6873 90.5368 34.6227C89.262 34.5259 88.4632 33.6464 88.3664 32.2263C88.2534 30.6449 89.1248 29.5153 90.5288 29.4104C91.5051 29.3459 92.1909 29.6605 92.7073 30.419C92.8525 30.6288 92.9735 30.8143 92.9897 30.8305C93.0058 30.8627 94.4178 30.1608 95.3376 29.6605L96.0073 29.3055L95.7491 28.8053C95.2166 27.7402 93.9095 26.7881 92.5378 26.4492C91.8117 26.2717 90.1415 26.2233 89.4153 26.3605Z" fill="#2A2D50"/>
<path d="M101.503 26.3685C99.1547 26.7962 97.3393 28.3776 96.7583 30.5239C96.5647 31.2339 96.5647 32.7831 96.7664 33.5092C97.3231 35.5506 98.8723 36.9949 101.132 37.5919C101.567 37.7049 101.971 37.7372 102.907 37.7372C104.327 37.7291 104.988 37.5839 106.094 37.0433C107.03 36.5834 108.103 35.5264 108.53 34.6388C109.006 33.6706 109.119 33.1381 109.111 31.9359C109.103 31.0322 109.079 30.7982 108.893 30.2415C108.353 28.5955 107.183 27.3691 105.529 26.7397C104.327 26.2717 102.802 26.1346 101.503 26.3685ZM104.02 29.6605C104.528 29.9591 104.859 30.3948 105.045 30.9999C105.424 32.2021 105.093 33.5819 104.278 34.1951C103.883 34.5017 103.471 34.6308 102.899 34.6388C101.914 34.6388 101.269 34.2435 100.841 33.3801C100.244 32.1779 100.526 30.54 101.454 29.838C101.906 29.483 102.269 29.3862 102.995 29.4185C103.528 29.4427 103.713 29.483 104.02 29.6605Z" fill="#2A2D50"/>
<path d="M127.338 26.3281C125.765 26.5621 124.24 27.4093 123.392 28.5308C122.586 29.5959 122.271 30.5803 122.279 32.0165C122.279 33.1703 122.416 33.7431 122.9 34.6791C123.965 36.7285 126.458 37.9307 129.29 37.7532C130.985 37.6483 132.26 37.1642 133.26 36.2283L133.518 35.9862L132.502 34.9131L131.493 33.84L131.033 34.1466C130.291 34.6468 129.904 34.7598 128.887 34.7598C128.08 34.7598 127.951 34.7356 127.491 34.5258C126.999 34.2999 126.426 33.7674 126.426 33.5414C126.426 33.4446 126.967 33.3397 132.066 32.3715L134.35 31.9358L134.301 31.371C134.099 29.1763 132.8 27.4335 130.815 26.6831C129.815 26.312 128.443 26.1668 127.338 26.3281ZM129.323 29.2086C129.775 29.37 130.235 29.7815 130.42 30.201C130.501 30.3786 130.549 30.5399 130.533 30.5561C130.493 30.5964 126.386 31.4113 126.224 31.4113C126.071 31.4113 126.071 31.1451 126.224 30.6287C126.612 29.3296 127.943 28.7164 129.323 29.2086Z" fill="#2A2D50"/>
<path d="M142.386 26.3283C141.458 26.4896 140.692 26.8446 140.087 27.4014L139.74 27.7241V27.0625V26.4089H137.884H136.028V32.0166V37.6243H137.957H139.893L139.917 34.5743L139.942 31.5325L140.151 31.0887C140.611 30.1124 141.192 29.7816 142.548 29.7332L143.451 29.7009V27.9742V26.2476L143.113 26.2556C142.919 26.2637 142.596 26.296 142.386 26.3283Z" fill="#2A2D50"/>
<path d="M67.606 32.0166V37.6243H69.5425H71.4789V32.0166V26.4089H69.5425H67.606V32.0166Z" fill="#2A2D50"/>
<path d="M109.127 26.5058C109.143 26.5622 110.176 29.0796 111.411 32.0973L113.654 37.5839L115.671 37.6081L117.696 37.6243L117.906 37.124C118.019 36.8416 119.06 34.3242 120.205 31.5325L122.295 26.4493L120.472 26.4251C119.471 26.417 118.624 26.4331 118.592 26.4654C118.559 26.5058 117.93 27.9985 117.188 29.7977C116.453 31.597 115.824 33.0897 115.792 33.122C115.76 33.1543 115.138 31.6535 114.412 29.7977L113.089 26.4089H111.088C109.515 26.4089 109.095 26.4331 109.127 26.5058Z" fill="#2A2D50"/>
<path d="M145 29.8139C145.033 33.0656 145.049 33.2511 145.218 33.8321C145.468 34.6712 145.823 35.3006 146.34 35.817C147.768 37.2451 150.544 37.4629 152.294 36.293C152.593 36.0913 152.851 35.938 152.859 35.9541C152.875 35.9703 152.859 36.2688 152.811 36.6077C152.617 38.1407 151.754 38.7943 149.906 38.7862C148.696 38.7781 147.494 38.4231 146.558 37.7938L146.316 37.6324L145.606 38.996L144.896 40.3596L145.283 40.6097C146.727 41.5134 149.446 42.0056 151.568 41.7393C152.536 41.6183 153.093 41.4569 153.9 41.0615C155.473 40.287 156.426 38.8346 156.684 36.8094C156.732 36.406 156.764 34.1629 156.764 31.2743V26.409H154.836H152.908L152.875 29.1281C152.835 32.178 152.795 32.4039 152.262 33.0252C151.544 33.8724 150.221 33.9854 149.495 33.2592C148.954 32.7186 148.914 32.4846 148.873 29.2491L148.841 26.409H146.905H144.968L145 29.8139Z" fill="#2A2D50"/>
<path d="M50.9041 48.9526V56.182H52.9213H54.9384V54.294V52.4059L56.9394 52.3656C59.0453 52.3172 59.5214 52.2526 60.5461 51.8653C62.1356 51.2682 63.2329 50.1225 63.7009 48.5572C63.8138 48.2022 63.8461 47.8068 63.8461 47.0645C63.8461 46.3222 63.8138 45.9268 63.7009 45.5718C63.2329 44.0227 62.1759 42.8931 60.6429 42.304C59.36 41.8038 59.2954 41.7957 54.9223 41.7634L50.9041 41.7312V48.9526ZM58.1658 45.0554C58.7226 45.1765 59.2874 45.5718 59.5375 46.0156C59.7069 46.3222 59.7392 46.4836 59.7392 47.0645C59.7392 47.9117 59.5375 48.3393 58.9566 48.7347C58.424 49.0897 57.9641 49.1623 56.3504 49.1623H54.9384V47.0645V44.9667H56.3504C57.1169 44.9667 57.9399 45.007 58.1658 45.0554Z" fill="#2A2D50"/>
<path d="M72.0275 44.886C71.0997 45.0474 70.3331 45.4024 69.728 45.9591L69.381 46.2819V45.6202V44.9667H67.5253H65.6695V50.5743V56.182H67.5979H69.5343L69.5586 53.1402L69.5828 50.0902L69.7925 49.6465C70.2524 48.6702 70.8334 48.3393 72.1889 48.2909L73.0926 48.2587V46.532V44.8053L72.7537 44.8134C72.5601 44.8214 72.2373 44.8537 72.0275 44.886Z" fill="#2A2D50"/>
<path d="M78.7492 44.9263C76.4012 45.3539 74.5858 46.9354 74.0049 49.0816C73.8112 49.7916 73.8112 51.3408 74.0129 52.067C74.5697 54.1083 76.1188 55.5526 78.378 56.1497C78.8137 56.2626 79.2172 56.2949 80.1531 56.2949C81.5732 56.2869 82.2348 56.1416 83.3402 55.601C84.2762 55.1411 85.3493 54.0841 85.7769 53.1966C86.253 52.2284 86.3659 51.6958 86.3579 50.4936C86.3498 49.5899 86.3256 49.3559 86.14 48.7992C85.5994 47.1532 84.4295 45.9268 82.7754 45.2974C81.5732 44.8295 80.0482 44.6923 78.7492 44.9263ZM81.2666 48.2183C81.7749 48.5168 82.1057 48.9525 82.2913 49.5577C82.6705 50.7599 82.3397 52.1396 81.5248 52.7528C81.1294 53.0594 80.7179 53.1885 80.1451 53.1966C79.1607 53.1966 78.5152 52.8012 78.0876 51.9379C77.4905 50.7357 77.7729 49.0977 78.7008 48.3958C79.1526 48.0408 79.5157 47.9439 80.2419 47.9762C80.7744 48.0004 80.96 48.0408 81.2666 48.2183Z" fill="#2A2D50"/>
</svg>
