<svg width="29" height="29" viewBox="0 0 29 29" fill="none" xmlns="http://www.w3.org/2000/svg">
<rect x="0.0195312" y="0.171387" width="28" height="28" rx="14" fill="#575983"/>
<path d="M8.91393 9.65491C8.78347 9.65491 8.6594 9.68049 8.54557 9.72653L14.117 14.904C14.3606 15.1304 14.5889 15.1304 14.8332 14.904L20.4149 9.72653C20.3011 9.68049 20.177 9.65491 20.0465 9.65491H8.91393ZM7.94187 10.5042C7.93612 10.547 7.93164 10.5924 7.93164 10.6372V17.8406C7.93164 18.3849 8.36971 18.8229 8.91393 18.8229H20.0465C20.5908 18.8229 21.0288 18.3849 21.0288 17.8406V10.6372C21.0288 10.5924 21.0244 10.547 21.0186 10.5042L15.4983 15.6203C14.9247 16.1517 14.0255 16.1523 13.4519 15.6203L7.94187 10.5042Z" fill="white"/>
</svg>
