<svg width="1205" height="529" viewBox="0 0 1205 529" fill="none" xmlns="http://www.w3.org/2000/svg">
<g clip-path="url(#clip0)">
<mask id="mask0" mask-type="alpha" maskUnits="userSpaceOnUse" x="-327" y="-883" width="2489" height="3044">
<rect x="740.901" y="-882.888" width="2802.44" height="1238.47" transform="rotate(59.5351 740.901 -882.888)" fill="url(#paint0_linear)"/>
</mask>
<g mask="url(#mask0)">
<path opacity="0.4" d="M218.359 589.762L257.718 437.957C270.762 387.646 270.456 334.802 256.83 284.645L241.521 228.294C214.108 127.39 245.176 19.6178 322.095 -51.2096C393.3 -116.775 425.61 -214.456 407.547 -309.549L389.175 -406.269L322.437 -636.739M541.423 -285.955L542.921 -275.204C559.04 -159.539 521.117 -42.8814 440.066 41.1956C395.181 87.7565 375.05 152.853 385.815 216.623L403.732 322.756C415.469 392.286 413.762 463.421 398.703 532.307L377.144 630.93M659.242 -301.43L671.993 -168.475C681.53 -69.0284 649.33 29.9114 583.088 104.695L579.637 108.591C524.977 170.3 510.284 257.774 541.783 333.955C570.552 403.533 575.892 480.586 556.996 553.467L526.848 669.745" stroke="url(#paint1_diamond)" stroke-width="99.9668"/>
<path opacity="0.3" d="M1001.81 1611.06L1049.03 1428.96C1064.67 1368.6 1064.31 1305.21 1047.96 1245.04L1029.6 1177.45C996.712 1056.4 1033.98 927.119 1126.25 842.156C1211.67 763.504 1250.43 646.327 1228.76 532.255L1206.72 416.23L1126.66 139.761M1389.36 560.558L1391.15 573.455C1410.49 712.205 1365 852.146 1267.77 953.004C1213.92 1008.86 1189.78 1086.95 1202.69 1163.45L1224.18 1290.76C1238.26 1374.17 1236.21 1459.5 1218.15 1542.14L1192.29 1660.44M1530.69 541.994L1545.99 701.485C1557.43 820.78 1518.8 939.468 1439.34 1029.18L1435.2 1033.85C1369.63 1107.88 1352 1212.81 1389.79 1304.2C1424.3 1387.66 1430.7 1480.09 1408.04 1567.52L1371.87 1707.01" stroke="url(#paint2_diamond)" stroke-width="119.919"/>
</g>
</g>
<path d="M805.328 84.7511L807.815 98.0648L683.554 121.274L681.067 107.96C679.694 100.61 684.544 93.5328 691.894 92.1599L692.723 96.5978C693.639 101.502 698.353 104.732 703.256 103.816C708.16 102.9 711.39 98.186 710.474 93.2822L709.646 88.8443L771.776 77.2397L772.605 81.6776C773.521 86.5814 778.235 89.8115 783.139 88.8956C788.043 87.9796 791.273 83.2658 790.357 78.362L789.528 73.924C796.878 72.5512 803.955 77.4008 805.328 84.7511ZM695.987 187.843C697.36 195.193 704.437 200.042 711.788 198.67L809.422 180.434C816.772 179.061 821.621 171.984 820.249 164.633L809.473 106.941L685.211 130.15L695.987 187.843ZM702.428 99.3779C703.604 99.1582 704.648 98.4809 705.325 97.4934C706.002 96.5058 706.256 95.2872 706.037 94.1111L702.721 76.3595C702.263 73.9075 699.906 72.2925 697.454 72.7505C695.002 73.2085 693.387 75.5653 693.845 78.0173L697.161 95.7689C697.38 96.945 698.058 97.9896 699.045 98.6663C700.033 99.343 701.251 99.5976 702.427 99.3779L702.428 99.3779ZM782.31 84.4577C783.486 84.238 784.531 83.5607 785.207 82.5731C785.884 81.5856 786.138 80.3669 785.919 79.1909L782.603 61.4393C782.145 58.9873 779.788 57.3723 777.336 57.8303C774.884 58.2883 773.269 60.6451 773.727 63.0971L777.043 80.8487C777.263 82.0248 777.94 83.0694 778.928 83.746C779.915 84.4227 781.134 84.6773 782.31 84.4577L782.31 84.4577Z" fill="url(#paint3_diamond)"/>
<path d="M733.256 399.053C732.596 401.084 730.507 402.287 728.419 401.84L681.764 391.647C682.491 390.132 683.659 388.873 685.118 388.032L742.879 354.75C744.338 353.909 746.013 353.53 747.689 353.661L733.256 399.053Z" fill="url(#paint4_diamond)"/>
<path d="M754.802 358.745L777.144 397.519C780.592 403.503 778.534 411.144 772.554 414.59L722.008 443.715C716.028 447.161 708.385 445.109 704.937 439.125L682.595 400.351L730.409 410.887C732.39 411.274 734.448 410.926 736.194 409.911C737.966 408.886 739.297 407.244 739.936 405.303L754.802 358.745Z" fill="url(#paint5_diamond)"/>
<path d="M869.088 343.778C895.746 360.591 939.553 342.786 957.052 316.384C965.582 303.524 968.651 287.796 965.584 272.672C962.524 257.548 953.575 244.261 940.715 235.731C927.851 227.205 912.126 224.132 897.002 227.199C881.875 230.263 868.588 239.212 860.062 252.075C851.536 264.939 848.468 280.667 851.534 295.79C854.601 310.913 863.55 324.2 876.413 332.726C876.599 332.849 874.67 335.567 872.732 338.28L869.088 343.778ZM933.121 294.861C935.627 296.534 936.882 299.552 936.297 302.506C935.713 305.459 933.406 307.775 930.45 308.367C927.499 308.962 924.477 307.719 922.801 305.217C921.118 302.716 921.106 299.453 922.77 296.942C923.863 295.284 925.569 294.131 927.514 293.744C929.458 293.35 931.48 293.754 933.121 294.861ZM881.02 278.192C878.482 276.541 877.203 273.512 877.777 270.539C878.35 267.566 880.672 265.236 883.639 264.645C886.609 264.05 889.643 265.32 891.313 267.842C892.983 270.371 892.956 273.657 891.249 276.158C888.972 279.52 884.411 280.427 881.02 278.192ZM902.865 292.671L902.869 292.674C900.372 290.989 899.135 287.97 899.736 285.021C900.329 282.073 902.645 279.769 905.595 279.186C908.55 278.605 911.561 279.853 913.233 282.353C914.907 284.859 914.907 288.121 913.241 290.625C910.931 294.038 906.299 294.959 902.861 292.687L902.865 292.671Z" fill="url(#paint6_diamond)"/>
<defs>
<linearGradient id="paint0_linear" x1="2142.12" y1="-882.888" x2="2296.93" y2="372.122" gradientUnits="userSpaceOnUse">
<stop offset="0.170556" stop-color="#C4C4C4" stop-opacity="0"/>
<stop offset="0.313855" stop-color="#C4C4C4"/>
<stop offset="0.483994" stop-color="#C4C4C4"/>
<stop offset="0.729161" stop-color="#C4C4C4" stop-opacity="0"/>
</linearGradient>
<radialGradient id="paint1_diamond" cx="0" cy="0" r="1" gradientUnits="userSpaceOnUse" gradientTransform="translate(558 242.278) rotate(-81.8187) scale(477.607 1290.06)">
<stop stop-color="#8280FF" stop-opacity="0"/>
<stop offset="0.151042" stop-color="#7A2CFA"/>
<stop offset="0.46875" stop-color="#A791FF"/>
<stop offset="0.578125" stop-color="#713FFF"/>
<stop offset="0.692708" stop-color="#5404FF"/>
<stop offset="1" stop-color="#8B00AD" stop-opacity="0"/>
</radialGradient>
<radialGradient id="paint2_diamond" cx="0" cy="0" r="1" gradientUnits="userSpaceOnUse" gradientTransform="translate(1409.24 1194.22) rotate(-81.8187) scale(572.933 1547.54)">
<stop stop-color="#4B48D6" stop-opacity="0"/>
<stop offset="0.151042" stop-color="#E6D4FF"/>
<stop offset="0.46875" stop-color="#3000F2"/>
<stop offset="0.578125" stop-color="#F5EEFF" stop-opacity="0.74"/>
<stop offset="0.692708" stop-color="#6724F5" stop-opacity="0"/>
<stop offset="1" stop-color="#3A06CE"/>
</radialGradient>
<radialGradient id="paint3_diamond" cx="0" cy="0" r="1" gradientUnits="userSpaceOnUse" gradientTransform="translate(931.999 281) rotate(158.793) scale(410.316 1120.41)">
<stop stop-color="#8280FF" stop-opacity="0"/>
<stop offset="0.151042" stop-color="#7A2CFA"/>
<stop offset="0.46875" stop-color="#A791FF"/>
<stop offset="0.578125" stop-color="#713FFF"/>
<stop offset="0.692708" stop-color="#5404FF"/>
<stop offset="1" stop-color="#8B00AD" stop-opacity="0"/>
</radialGradient>
<radialGradient id="paint4_diamond" cx="0" cy="0" r="1" gradientUnits="userSpaceOnUse" gradientTransform="translate(692 578) rotate(-64.385) scale(461.478 1425.44)">
<stop stop-color="#8280FF" stop-opacity="0"/>
<stop offset="0.151042" stop-color="#7A2CFA"/>
<stop offset="0.46875" stop-color="#A791FF"/>
<stop offset="0.578125" stop-color="#713FFF"/>
<stop offset="0.692708" stop-color="#5404FF"/>
<stop offset="1" stop-color="#8B00AD" stop-opacity="0"/>
</radialGradient>
<radialGradient id="paint5_diamond" cx="0" cy="0" r="1" gradientUnits="userSpaceOnUse" gradientTransform="translate(692 578) rotate(-64.385) scale(461.478 1425.44)">
<stop stop-color="#8280FF" stop-opacity="0"/>
<stop offset="0.151042" stop-color="#7A2CFA"/>
<stop offset="0.46875" stop-color="#A791FF"/>
<stop offset="0.578125" stop-color="#713FFF"/>
<stop offset="0.692708" stop-color="#5404FF"/>
<stop offset="1" stop-color="#8B00AD" stop-opacity="0"/>
</radialGradient>
<radialGradient id="paint6_diamond" cx="0" cy="0" r="1" gradientUnits="userSpaceOnUse" gradientTransform="translate(923.52 227.693) rotate(-18.6966) scale(346.273 1039.98)">
<stop stop-color="#8280FF" stop-opacity="0"/>
<stop offset="0.151042" stop-color="#7A2CFA"/>
<stop offset="0.46875" stop-color="#A791FF"/>
<stop offset="0.578125" stop-color="#713FFF"/>
<stop offset="0.692708" stop-color="#5404FF"/>
<stop offset="1" stop-color="#8B00AD" stop-opacity="0"/>
</radialGradient>
<clipPath id="clip0">
<rect width="2171.96" height="940.762" fill="white" transform="translate(811.069 -536.553) rotate(59.5351)"/>
</clipPath>
</defs>
</svg>
