<svg width="28" height="28" viewBox="0 0 28 28" fill="none" xmlns="http://www.w3.org/2000/svg">
<path d="M8.06441 3.16431C7.22441 3.16431 6.52441 3.86431 6.52441 4.70431V20.6086C6.52441 21.4486 7.22441 22.1486 8.06441 22.1486H10.2486L10.1929 24.0244C10.1929 24.3601 10.3886 24.6401 10.6686 24.7528C10.9486 24.8644 11.2844 24.8086 11.5086 24.6128L12.6002 23.6613L13.6917 24.6128C13.8317 24.7528 14.0275 24.8086 14.2233 24.8086C14.3349 24.8086 14.4475 24.7802 14.5317 24.7528C14.8402 24.6128 15.0075 24.3328 15.0075 23.997L14.9517 22.1213H19.936C20.776 22.1213 21.476 21.4213 21.476 20.5813V8.9887C21.476 8.79292 21.3918 8.62448 21.2518 8.48448L15.8204 3.36019C15.6804 3.24863 15.5119 3.16441 15.3446 3.16441L8.06441 3.16431ZM12.6001 19.3486C11.5644 19.3486 10.7244 18.5086 10.7244 17.4728C10.7244 16.437 11.5644 15.597 12.6001 15.597C13.6359 15.597 14.4759 16.437 14.4759 17.4728C14.4759 18.5086 13.6359 19.3486 12.6001 19.3486ZM13.1317 22.2886C12.8232 22.0086 12.3759 22.0086 12.0675 22.2886L11.6201 22.6801L11.6759 20.6086C11.9559 20.6928 12.2643 20.7486 12.5717 20.7486C12.8801 20.7486 13.1874 20.6928 13.4959 20.6086L13.5517 22.6801L13.1317 22.2886ZM16.0442 5.48859L19.0128 8.28859H16.0442V5.48859ZM20.0757 9.68859V20.6086C20.0757 20.6928 20.0199 20.7486 19.9357 20.7486H14.9242L14.8958 19.797C15.5116 19.2086 15.8758 18.3686 15.8758 17.4728C15.8758 15.6813 14.42 14.1971 12.6001 14.1971C10.7801 14.196 9.32437 15.6802 9.32437 17.4717C9.32437 18.3959 9.71592 19.2075 10.3044 19.8232L10.2759 20.7748H8.06438C7.98016 20.7748 7.92438 20.719 7.92438 20.6348V4.70419C7.92438 4.61998 7.98016 4.56419 8.06438 4.56419H14.6444V8.98848C14.6444 9.38003 14.9528 9.68848 15.3444 9.68848L20.0757 9.68859Z" fill="url(#paint0_angular)"/>
<path d="M8.06441 3.16431C7.22441 3.16431 6.52441 3.86431 6.52441 4.70431V20.6086C6.52441 21.4486 7.22441 22.1486 8.06441 22.1486H10.2486L10.1929 24.0244C10.1929 24.3601 10.3886 24.6401 10.6686 24.7528C10.9486 24.8644 11.2844 24.8086 11.5086 24.6128L12.6002 23.6613L13.6917 24.6128C13.8317 24.7528 14.0275 24.8086 14.2233 24.8086C14.3349 24.8086 14.4475 24.7802 14.5317 24.7528C14.8402 24.6128 15.0075 24.3328 15.0075 23.997L14.9517 22.1213H19.936C20.776 22.1213 21.476 21.4213 21.476 20.5813V8.9887C21.476 8.79292 21.3918 8.62448 21.2518 8.48448L15.8204 3.36019C15.6804 3.24863 15.5119 3.16441 15.3446 3.16441L8.06441 3.16431ZM12.6001 19.3486C11.5644 19.3486 10.7244 18.5086 10.7244 17.4728C10.7244 16.437 11.5644 15.597 12.6001 15.597C13.6359 15.597 14.4759 16.437 14.4759 17.4728C14.4759 18.5086 13.6359 19.3486 12.6001 19.3486ZM13.1317 22.2886C12.8232 22.0086 12.3759 22.0086 12.0675 22.2886L11.6201 22.6801L11.6759 20.6086C11.9559 20.6928 12.2643 20.7486 12.5717 20.7486C12.8801 20.7486 13.1874 20.6928 13.4959 20.6086L13.5517 22.6801L13.1317 22.2886ZM16.0442 5.48859L19.0128 8.28859H16.0442V5.48859ZM20.0757 9.68859V20.6086C20.0757 20.6928 20.0199 20.7486 19.9357 20.7486H14.9242L14.8958 19.797C15.5116 19.2086 15.8758 18.3686 15.8758 17.4728C15.8758 15.6813 14.42 14.1971 12.6001 14.1971C10.7801 14.196 9.32437 15.6802 9.32437 17.4717C9.32437 18.3959 9.71592 19.2075 10.3044 19.8232L10.2759 20.7748H8.06438C7.98016 20.7748 7.92438 20.719 7.92438 20.6348V4.70419C7.92438 4.61998 7.98016 4.56419 8.06438 4.56419H14.6444V8.98848C14.6444 9.38003 14.9528 9.68848 15.3444 9.68848L20.0757 9.68859Z" fill="#806BFF"/>
<path d="M8.06441 3.16431C7.22441 3.16431 6.52441 3.86431 6.52441 4.70431V20.6086C6.52441 21.4486 7.22441 22.1486 8.06441 22.1486H10.2486L10.1929 24.0244C10.1929 24.3601 10.3886 24.6401 10.6686 24.7528C10.9486 24.8644 11.2844 24.8086 11.5086 24.6128L12.6002 23.6613L13.6917 24.6128C13.8317 24.7528 14.0275 24.8086 14.2233 24.8086C14.3349 24.8086 14.4475 24.7802 14.5317 24.7528C14.8402 24.6128 15.0075 24.3328 15.0075 23.997L14.9517 22.1213H19.936C20.776 22.1213 21.476 21.4213 21.476 20.5813V8.9887C21.476 8.79292 21.3918 8.62448 21.2518 8.48448L15.8204 3.36019C15.6804 3.24863 15.5119 3.16441 15.3446 3.16441L8.06441 3.16431ZM12.6001 19.3486C11.5644 19.3486 10.7244 18.5086 10.7244 17.4728C10.7244 16.437 11.5644 15.597 12.6001 15.597C13.6359 15.597 14.4759 16.437 14.4759 17.4728C14.4759 18.5086 13.6359 19.3486 12.6001 19.3486ZM13.1317 22.2886C12.8232 22.0086 12.3759 22.0086 12.0675 22.2886L11.6201 22.6801L11.6759 20.6086C11.9559 20.6928 12.2643 20.7486 12.5717 20.7486C12.8801 20.7486 13.1874 20.6928 13.4959 20.6086L13.5517 22.6801L13.1317 22.2886ZM16.0442 5.48859L19.0128 8.28859H16.0442V5.48859ZM20.0757 9.68859V20.6086C20.0757 20.6928 20.0199 20.7486 19.9357 20.7486H14.9242L14.8958 19.797C15.5116 19.2086 15.8758 18.3686 15.8758 17.4728C15.8758 15.6813 14.42 14.1971 12.6001 14.1971C10.7801 14.196 9.32437 15.6802 9.32437 17.4717C9.32437 18.3959 9.71592 19.2075 10.3044 19.8232L10.2759 20.7748H8.06438C7.98016 20.7748 7.92438 20.719 7.92438 20.6348V4.70419C7.92438 4.61998 7.98016 4.56419 8.06438 4.56419H14.6444V8.98848C14.6444 9.38003 14.9528 9.68848 15.3444 9.68848L20.0757 9.68859Z" fill="#F89500"/>
<path d="M8.06441 3.16431C7.22441 3.16431 6.52441 3.86431 6.52441 4.70431V20.6086C6.52441 21.4486 7.22441 22.1486 8.06441 22.1486H10.2486L10.1929 24.0244C10.1929 24.3601 10.3886 24.6401 10.6686 24.7528C10.9486 24.8644 11.2844 24.8086 11.5086 24.6128L12.6002 23.6613L13.6917 24.6128C13.8317 24.7528 14.0275 24.8086 14.2233 24.8086C14.3349 24.8086 14.4475 24.7802 14.5317 24.7528C14.8402 24.6128 15.0075 24.3328 15.0075 23.997L14.9517 22.1213H19.936C20.776 22.1213 21.476 21.4213 21.476 20.5813V8.9887C21.476 8.79292 21.3918 8.62448 21.2518 8.48448L15.8204 3.36019C15.6804 3.24863 15.5119 3.16441 15.3446 3.16441L8.06441 3.16431ZM12.6001 19.3486C11.5644 19.3486 10.7244 18.5086 10.7244 17.4728C10.7244 16.437 11.5644 15.597 12.6001 15.597C13.6359 15.597 14.4759 16.437 14.4759 17.4728C14.4759 18.5086 13.6359 19.3486 12.6001 19.3486ZM13.1317 22.2886C12.8232 22.0086 12.3759 22.0086 12.0675 22.2886L11.6201 22.6801L11.6759 20.6086C11.9559 20.6928 12.2643 20.7486 12.5717 20.7486C12.8801 20.7486 13.1874 20.6928 13.4959 20.6086L13.5517 22.6801L13.1317 22.2886ZM16.0442 5.48859L19.0128 8.28859H16.0442V5.48859ZM20.0757 9.68859V20.6086C20.0757 20.6928 20.0199 20.7486 19.9357 20.7486H14.9242L14.8958 19.797C15.5116 19.2086 15.8758 18.3686 15.8758 17.4728C15.8758 15.6813 14.42 14.1971 12.6001 14.1971C10.7801 14.196 9.32437 15.6802 9.32437 17.4717C9.32437 18.3959 9.71592 19.2075 10.3044 19.8232L10.2759 20.7748H8.06438C7.98016 20.7748 7.92438 20.719 7.92438 20.6348V4.70419C7.92438 4.61998 7.98016 4.56419 8.06438 4.56419H14.6444V8.98848C14.6444 9.38003 14.9528 9.68848 15.3444 9.68848L20.0757 9.68859Z" fill="#7D4CE6"/>
<path d="M9.32422 8.28857H13.6642V9.68858H9.32422V8.28857Z" fill="url(#paint1_angular)"/>
<path d="M9.32422 8.28857H13.6642V9.68858H9.32422V8.28857Z" fill="#806BFF"/>
<path d="M9.32422 8.28857H13.6642V9.68858H9.32422V8.28857Z" fill="#F89500"/>
<path d="M9.32422 8.28857H13.6642V9.68858H9.32422V8.28857Z" fill="#7D4CE6"/>
<path d="M9.32422 11.3958H16.4642V12.7958H9.32422V11.3958Z" fill="url(#paint2_angular)"/>
<path d="M9.32422 11.3958H16.4642V12.7958H9.32422V11.3958Z" fill="#806BFF"/>
<path d="M9.32422 11.3958H16.4642V12.7958H9.32422V11.3958Z" fill="#F89500"/>
<path d="M9.32422 11.3958H16.4642V12.7958H9.32422V11.3958Z" fill="#7D4CE6"/>
<defs>
<radialGradient id="paint0_angular" cx="0" cy="0" r="1" gradientUnits="userSpaceOnUse" gradientTransform="translate(7.81039 8.97159) rotate(81.9111) scale(33.7541 13.3689)">
<stop offset="0.192329" stop-color="#001AFF"/>
<stop offset="0.372506" stop-color="#2400FF"/>
<stop offset="0.547269" stop-color="#0007B5" stop-opacity="0.42"/>
<stop offset="0.671875" stop-color="#2973FF"/>
<stop offset="0.768039" stop-color="#3FA3FF"/>
<stop offset="0.996694" stop-color="#99DAFF"/>
<stop offset="0.998715" stop-color="#001AFF"/>
</radialGradient>
<radialGradient id="paint1_angular" cx="0" cy="0" r="1" gradientUnits="userSpaceOnUse" gradientTransform="translate(9.6975 8.66418) rotate(57.4691) scale(2.56371 3.30462)">
<stop offset="0.192329" stop-color="#001AFF"/>
<stop offset="0.372506" stop-color="#2400FF"/>
<stop offset="0.547269" stop-color="#0007B5" stop-opacity="0.42"/>
<stop offset="0.671875" stop-color="#2973FF"/>
<stop offset="0.768039" stop-color="#3FA3FF"/>
<stop offset="0.996694" stop-color="#99DAFF"/>
<stop offset="0.998715" stop-color="#001AFF"/>
</radialGradient>
<radialGradient id="paint2_angular" cx="0" cy="0" r="1" gradientUnits="userSpaceOnUse" gradientTransform="translate(9.93832 11.7714) rotate(43.621) scale(3.13308 4.44863)">
<stop offset="0.192329" stop-color="#001AFF"/>
<stop offset="0.372506" stop-color="#2400FF"/>
<stop offset="0.547269" stop-color="#0007B5" stop-opacity="0.42"/>
<stop offset="0.671875" stop-color="#2973FF"/>
<stop offset="0.768039" stop-color="#3FA3FF"/>
<stop offset="0.996694" stop-color="#99DAFF"/>
<stop offset="0.998715" stop-color="#001AFF"/>
</radialGradient>
</defs>
</svg>
