<svg width="87" height="86" viewBox="0 0 87 86" fill="none" xmlns="http://www.w3.org/2000/svg">
<g filter="url(#filter0_d)">
<path fill-rule="evenodd" clip-rule="evenodd" d="M33.9367 15C25.6874 15 19 21.6874 19 29.9367V36.0782V42.2196C19 50.4689 25.6874 57.1563 33.9367 57.1563C35.6537 57.1563 37.2465 58.051 38.1398 59.5173L38.4509 60.0278C40.7835 63.8563 46.342 63.8563 48.6747 60.0278L49.275 59.0425C49.9887 57.8711 51.2612 57.1563 52.6329 57.1563C60.8822 57.1563 67.5696 50.4689 67.5696 42.2196V29.9367C67.5696 21.6874 60.8822 15 52.6329 15H33.9367Z" fill="white"/>
</g>
<g clip-path="url(#clip0)">
<path d="M44.7351 27.2175V25.7392C44.7351 25.331 44.4059 25 43.9999 25C43.5938 25 43.2646 25.331 43.2646 25.7392V27.2175C43.2646 27.6257 43.5938 27.9567 43.9999 27.9567C44.4059 27.9567 44.7351 27.6257 44.7351 27.2175Z" fill="#5332F7"/>
<path d="M38.7164 29.1339C39.0845 28.9614 39.2437 28.5216 39.0721 28.1516L38.4506 26.8117C38.279 26.4418 37.8414 26.2816 37.4736 26.4542C37.1055 26.6267 36.9463 27.0665 37.1179 27.4365L37.7394 28.7763C37.9118 29.1481 38.3502 29.3056 38.7164 29.1339Z" fill="#5332F7"/>
<path d="M34.3343 31.4533L33.2079 30.503C32.8967 30.2406 32.433 30.2814 32.172 30.5942C31.911 30.9069 31.9516 31.3731 32.2627 31.6355L33.3891 32.5858C33.6989 32.8471 34.1629 32.8087 34.4249 32.4947C34.6859 32.1819 34.6453 31.7157 34.3343 31.4533Z" fill="#5332F7"/>
<path d="M50.2592 28.7763L50.8807 27.4365C51.0523 27.0665 50.8931 26.6267 50.525 26.4542C50.1572 26.2817 49.7196 26.4417 49.548 26.8117L48.9265 28.1515C48.7549 28.5215 48.9141 28.9613 49.2821 29.1338C49.6478 29.3053 50.0865 29.1486 50.2592 28.7763Z" fill="#5332F7"/>
<path d="M55.8277 30.5941C55.5668 30.2814 55.1029 30.2406 54.7919 30.503L53.6655 31.4533C53.3544 31.7157 53.3139 32.182 53.5749 32.4946C53.8351 32.8064 54.2987 32.8489 54.6107 32.5858L55.7371 31.6355C56.0482 31.3731 56.0888 30.9069 55.8277 30.5941Z" fill="#5332F7"/>
<path d="M36.4534 31.7695C36.4482 31.7708 36.0511 31.7557 35.818 32.0943C35.4059 32.6805 33.2271 35.7797 32.8022 36.384C32.6125 36.6539 32.6411 37.0127 32.8612 37.2515L43.431 48.7544C43.5744 48.9105 43.7819 49 44.0002 49C44.2184 49 44.426 48.9105 44.5694 48.7544L55.1392 37.2515C55.3552 37.0176 55.3912 36.6585 55.1981 36.384L52.1824 32.0943C52.0407 31.8892 51.8003 31.7695 51.55 31.7695C51.55 31.7695 36.4539 31.7695 36.4534 31.7695ZM53.1592 36.0652H49.9407L51.55 33.7761L53.1592 36.0652ZM41.293 36.0652L44.0002 33.498L46.7074 36.0652H41.293ZM47.4406 37.4971L44.0002 46.1973L40.5597 37.4971H47.4406ZM41.8613 44.8665L35.0897 37.4971H38.9471L41.8613 44.8665ZM49.0533 37.4971H52.9106L46.1391 44.8665L49.0533 37.4971ZM48.4128 35.6574L45.8229 33.2014H50.1393L48.4128 35.6574ZM39.5876 35.6574L37.861 33.2014H42.1775L39.5876 35.6574ZM38.0596 36.0652H34.8411L36.4503 33.7761L38.0596 36.0652Z" fill="#5332F7"/>
</g>
<defs>
<filter id="filter0_d" x="0" y="0" width="86.5696" height="85.8992" filterUnits="userSpaceOnUse" color-interpolation-filters="sRGB">
<feFlood flood-opacity="0" result="BackgroundImageFix"/>
<feColorMatrix in="SourceAlpha" type="matrix" values="0 0 0 0 0 0 0 0 0 0 0 0 0 0 0 0 0 0 127 0"/>
<feMorphology radius="1" operator="dilate" in="SourceAlpha" result="effect1_dropShadow"/>
<feOffset dy="4"/>
<feGaussianBlur stdDeviation="9"/>
<feColorMatrix type="matrix" values="0 0 0 0 0.133333 0 0 0 0 0.176471 0 0 0 0 0.611765 0 0 0 0.09 0"/>
<feBlend mode="normal" in2="BackgroundImageFix" result="effect1_dropShadow"/>
<feBlend mode="normal" in="SourceGraphic" in2="effect1_dropShadow" result="shape"/>
</filter>
<clipPath id="clip0">
<rect width="24" height="24" fill="white" transform="translate(32 25)"/>
</clipPath>
</defs>
</svg>
